<svg width="100" height="20" viewBox="0 0 100 20" fill="none" xmlns="http://www.w3.org/2000/svg">
<g clip-path="url(#clip0_2094_29)">
<path d="M62.7487 17.3333V12.3684C62.7487 9.36842 65.3894 9.42105 66.771 9.64912V6.26316C64.5675 6.07018 63.2558 6.68421 62.6612 7.87719H62.5913L62.6088 6.31579H59.5483V17.3333H62.7487Z" fill="#162136"/>
<path d="M76.0749 17.3333H78.0686L81.3564 13.1754L84.1371 17.3333H87.8446L83.4725 10.9474L87.3025 6.29825H83.6124L79.2403 11.8421H79.1704L79.2053 0.789474H76.0749V17.3333Z" fill="#162136"/>
<path d="M40.1361 17.3333H42.602L46.3795 10.2456L50.0346 17.3333H52.5354L58.1492 6.29825H54.4242L50.9789 13.3333L47.7086 6.29825H45.0328L41.5876 13.3684L38.3173 6.29825H34.5922L40.1361 17.3333Z" fill="#162136"/>
<path d="M71.0207 4.7193C72.1025 4.7193 72.9794 3.83958 72.9794 2.75439C72.9794 1.6692 72.1025 0.789474 71.0207 0.789474C69.939 0.789474 69.062 1.6692 69.062 2.75439C69.062 3.83958 69.939 4.7193 71.0207 4.7193Z" fill="#162136"/>
<path d="M72.5947 6.29825H69.4468V17.3333H72.5947V6.29825Z" fill="#162136"/>
<path d="M96.7813 13.6667C96.3965 14.2456 95.592 14.9649 94.2454 14.9649C92.6715 14.9649 91.5522 14.0526 91.3074 12.7368H99.8592C99.8592 12.5088 99.8592 12.1754 99.8592 11.8597C99.8592 8.66667 97.5682 6.10526 94.1755 6.10526C90.8527 6.10526 88.2818 8.63158 88.2818 11.8597C88.2818 15.0702 90.8002 17.614 94.1755 17.614C96.6938 17.614 98.2153 16.614 99.1947 15.3333L96.7813 13.6667ZM94.0006 8.57895C95.4521 8.57895 96.4665 9.38597 96.8162 10.5439H91.1674C91.5172 9.38597 92.5141 8.57895 94.0006 8.57895Z" fill="#162136"/>
<path d="M7.38014 7.24561C8.90164 7.24561 9.61867 7.52632 10.7204 8.63158L16.6315 14.5614C16.8064 14.7368 16.8414 14.807 16.8764 14.9123C16.8939 14.9474 16.8939 15 16.8939 15.0351C16.8939 15.0702 16.8939 15.1228 16.8764 15.1579C16.8414 15.2632 16.8064 15.3333 16.6315 15.5088L12.5917 19.5789C12.4168 19.7544 12.3469 19.7895 12.2419 19.8246C12.207 19.8421 12.1545 19.8421 12.1195 19.8421C12.0845 19.8421 12.0321 19.8421 11.9971 19.8246C11.8922 19.7895 11.8222 19.7544 11.6473 19.5789L0.192377 8.08772C-0.139904 7.75439 -0.0174845 7.24561 0.542147 7.24561H7.38014Z" fill="#162136"/>
<path d="M24.0642 0C22.5427 0 21.8256 0.280702 20.7239 1.38596L14.8127 7.31579C14.6379 7.49123 14.6029 7.5614 14.5679 7.66667C14.5504 7.70175 14.5504 7.75439 14.5504 7.78947C14.5504 7.82456 14.5504 7.87719 14.5679 7.91228C14.6029 8.01754 14.6379 8.08772 14.8127 8.26316L18.8526 12.3158C19.0275 12.4912 19.0974 12.5263 19.2024 12.5614C19.2373 12.5789 19.2898 12.5789 19.3248 12.5789C19.3598 12.5789 19.4122 12.5789 19.4472 12.5614C19.5521 12.5263 19.6221 12.4912 19.797 12.3158L31.2519 0.824561C31.5842 0.491228 31.4618 1.33849e-06 30.9022 1.33849e-06L24.0642 0Z" fill="#162136"/>
</g>
<defs>
<clipPath id="clip0_2094_29">
<rect width="99.8592" height="20" fill="white"/>
</clipPath>
</defs>
</svg>
