<?xml version="1.0"?>
<svg xmlns="http://www.w3.org/2000/svg" width="109" height="38" viewBox="0 0 109 38" fill="none">
<path d="M49.4031 1.16364H52.9262C56.5722 1.16364 57.6783 2.61794 57.6783 5.81333V11.2619C57.6783 14.5392 56.5517 16.1164 53.0491 16.1164H49.4031V1.16364ZM52.9672 14.2115C54.8311 14.2115 54.9131 13.2078 54.9131 11.3438V5.6085C54.9131 3.82646 54.7287 3.06858 52.9467 3.06858H52.1274V14.191H52.9672V14.2115Z" fill="#3a3f48"/>
<path d="M59.3374 1.16364H65.6258V3.08906H62.0617V7.39054H64.8679V9.29549H62.0617V14.2729H65.6667V16.1369H59.3579V1.16364H59.3374Z" fill="#3a3f48"/>
<path d="M66.6497 11.1802V6.16178C66.6497 2.94591 67.6329 1 70.9102 1C73.9827 1 75.0478 2.59769 75.0478 5.36293V6.1413H72.4464V5.30148C72.4464 3.86765 72.303 3.00736 70.9511 3.00736C69.5173 3.00736 69.3944 4.1749 69.3944 5.54728V11.8152C69.3944 13.3719 69.6812 14.3551 71.0126 14.3551C72.3235 14.3551 72.6513 13.3309 72.6513 11.6923V10.2789H71.0536V8.55832H75.1093V16.1166H73.3682L73.1838 14.6623C72.7742 15.625 72.0368 16.3215 70.6439 16.3215C67.6943 16.3215 66.6497 14.3346 66.6497 11.1802Z" fill="#3a3f48"/>
<path d="M76.8708 1.16364H80.4759C83.4665 1.16364 85.1666 2.12635 85.1666 5.13738C85.1666 6.91943 84.7159 8.18939 83.3231 8.76292L85.4124 16.1369H82.6881L80.9061 9.275H79.6156V16.1164H76.8708V1.16364ZM80.4554 7.57489C82.0326 7.57489 82.6062 6.89895 82.6062 5.28077C82.6062 3.76501 82.176 3.02761 80.6193 3.02761H79.5951V7.57489H80.4554Z" fill="#3a3f48"/>
<path d="M86.8872 1.16364H93.1756V3.08906H89.6115V7.39054H92.4177V9.29549H89.6115V14.2729H93.2165V16.1369H86.8872V1.16364Z" fill="#3a3f48"/>
<path d="M94.425 1.16364H100.713V3.08906H97.1493V7.39054H99.9555V9.29549H97.1493V14.2729H100.754V16.1369H94.4455V1.16364H94.425Z" fill="#3a3f48"/>
<path d="M49.1575 29.3526V24.0065C49.1575 20.934 50.1407 19.0085 53.418 19.0085C56.4905 19.0085 57.4532 20.7087 57.4532 23.31V24.5595H54.8313V23.2691C54.8313 22.0196 54.8108 20.9954 53.418 20.9954C52.0046 20.9954 51.8817 22.0605 51.8817 23.4329V29.9056C51.8817 31.5238 52.2095 32.3022 53.418 32.3022C54.7699 32.3022 54.8313 31.2575 54.8313 29.9261V28.5742H57.4532V29.7827C57.4532 32.4251 56.5724 34.33 53.418 34.33C50.1407 34.33 49.1575 32.2612 49.1575 29.3526Z" fill="#3a3f48"/>
<path d="M59.0713 19.1688H61.7955V25.4162H64.8475V19.1688H67.5718V34.1216H64.8271V27.3621H61.7751V34.1216H59.0508V19.1688H59.0713Z" fill="#3a3f48"/>
<path d="M69.2717 29.4309V23.8184C69.2717 20.7869 70.3778 19.0049 73.5937 19.0049C76.7891 19.0049 77.8952 20.7869 77.8952 23.8184V29.4309C77.8952 32.4419 76.7891 34.3263 73.5937 34.3263C70.3573 34.3263 69.2717 32.4624 69.2717 29.4309ZM75.1095 30.0863V23.2039C75.1095 21.9545 74.9046 21.0122 73.5732 21.0122C72.2418 21.0122 72.0165 21.9545 72.0165 23.2039V30.0863C72.0165 31.3153 72.2213 32.319 73.5732 32.319C74.9046 32.319 75.1095 31.3153 75.1095 30.0863Z" fill="#3a3f48"/>
<path d="M79.616 19.1688H82.3197V34.1216H79.616V19.1688Z" fill="#3a3f48"/>
<path d="M84.0403 29.3489V24.0028C84.0403 20.9303 85.0235 19.0049 88.3008 19.0049C91.3733 19.0049 92.336 20.705 92.336 23.3064V24.5558H89.7141V23.2654C89.7141 22.0159 89.6937 20.9918 88.3008 20.9918C86.8875 20.9918 86.7646 22.0569 86.7646 23.4293V29.902C86.7646 31.5201 87.0923 32.2985 88.3008 32.2985C89.6527 32.2985 89.7141 31.2539 89.7141 29.9224V28.5706H92.336V29.7791C92.336 32.4214 91.4552 34.3263 88.3008 34.3263C85.0235 34.3263 84.0403 32.2575 84.0403 29.3489Z" fill="#3a3f48"/>
<path d="M93.8928 19.1688H100.181V21.0942H96.6171V25.3957H99.4233V27.3007H96.6171V32.2781H100.222V34.1421H93.9133V19.1688H93.8928Z" fill="#3a3f48"/>
<path d="M101.083 29.7792L103.438 29.3081C103.52 31.0902 103.93 32.2167 105.138 32.2167C105.999 32.2167 106.367 31.6227 106.367 30.8034C106.367 29.5129 105.712 28.796 104.729 27.9357L102.844 26.2971C101.779 25.3753 101.103 24.3307 101.103 22.6715C101.103 20.316 102.578 18.9846 104.954 18.9846C107.76 18.9846 108.559 20.869 108.702 23.0402L106.347 23.4499C106.285 22.0366 106.08 20.9919 104.892 20.9919C104.073 20.9919 103.643 21.6064 103.643 22.4053C103.643 23.4294 104.073 23.9825 104.872 24.6584L106.736 26.2971C107.965 27.3417 108.969 28.6526 108.969 30.6395C108.969 32.7903 107.453 34.306 105.22 34.306C102.496 34.3265 101.205 32.7493 101.083 29.7792Z" fill="#3a3f48"/>
<path d="M42.8678 1.17336H25.7233C25.1497 1.15287 24.5967 1.3577 24.1666 1.74688L23.5443 2.23652C23.1774 2.52522 22.6596 2.52164 22.2967 2.22789L21.6266 1.68544C21.217 1.33722 20.6844 1.15287 20.1313 1.17336H3.35557C2.06513 1.17336 1 2.15655 1 3.36506V32.5742C1 33.7827 2.04465 34.7659 3.35557 34.7659H19.2724C19.5096 34.7659 19.739 34.8502 19.9197 35.0036L21.6471 36.4705C22.282 37.028 22.7059 36.9986 23.0605 36.9986H23.3063C23.9003 37.019 24.4943 36.7937 24.9244 36.3636L26.4419 35.0013C26.6255 34.8365 26.8634 34.7454 27.11 34.7454H42.9497C44.2401 34.7454 45.3053 33.7622 45.3053 32.5537V3.42651C45.2643 2.19752 44.1992 1.19384 42.8678 1.17336ZM22.241 32.2669C22.2411 32.3574 22.1677 32.4308 22.0773 32.4308L4.07204 32.489C3.5185 32.4908 3.06881 32.0426 3.06881 31.489V4.40603C3.06881 3.85374 3.51652 3.40603 4.06881 3.40603H20.1665C20.3703 3.40603 20.5693 3.46831 20.7367 3.58453L21.7912 4.31648C22.0602 4.5032 22.2208 4.80979 22.221 5.13724L22.241 32.2669ZM24.269 32.4718C24.1785 32.4718 24.1051 32.3984 24.1051 32.3079V5.19916C24.1051 4.87145 24.2657 4.56453 24.5349 4.37766L25.589 3.64598C25.7564 3.52976 25.9554 3.46748 26.1592 3.46748H42.175C42.7273 3.46748 43.175 3.91519 43.175 4.46748V31.53C43.175 32.0835 42.7253 32.5317 42.1717 32.5299L24.269 32.4718Z" fill="#3a3f48" stroke="#3a3f48" stroke-width="0.6" stroke-linecap="round" stroke-linejoin="round"/>
</svg>
